<svg xmlns="http://www.w3.org/2000/svg" version="1.1" xmlns:xlink="http://www.w3.org/1999/xlink" xmlns:svgjs="http://svgjs.dev/svgjs" width="1000" height="999" viewBox="0 0 1000 999"><g transform="matrix(1,0,0,1,-0.215743440233382,-0.21552769679306039)"><svg viewBox="0 0 343 343" data-background-color="#d9bca9" preserveAspectRatio="xMidYMid meet" height="999" width="1000" xmlns="http://www.w3.org/2000/svg" xmlns:xlink="http://www.w3.org/1999/xlink"><g id="tight-bounds" transform="matrix(1,0,0,1,0.0740000000000407,0.07400000000001228)"><svg viewBox="0 0 342.85155851775386 342.85155851775386" height="342.85155851775386" width="342.85155851775386"><g><svg></svg></g><g><svg viewBox="0 0 342.85155851775386 342.85155851775386" height="342.85155851775386" width="342.85155851775386"><g><path d="M0 171.426c0-94.676 76.75-171.426 171.426-171.426 94.676 0 171.426 76.75 171.426 171.426 0 94.676-76.75 171.426-171.426 171.426-94.676 0-171.426-76.75-171.426-171.426zM171.426 337.867c91.923 0 166.441-74.518 166.441-166.441 0-91.923-74.518-166.441-166.441-166.442-91.923 0-166.441 74.518-166.442 166.442 0 91.923 74.518 166.441 166.442 166.441z" data-fill-palette-color="tertiary" fill="#c56e33" stroke="transparent"></path><ellipse rx="164.56874808852186" ry="164.56874808852186" cx="171.42577925887693" cy="171.42577925887693" fill="#c56e33" stroke="transparent" stroke-width="0" fill-opacity="1" data-fill-palette-color="tertiary"></ellipse></g><g transform="matrix(1,0,0,1,64.84655864529837,76.00744938251898)"><svg viewBox="0 0 213.1584412271571 190.8366597527159" height="190.8366597527159" width="213.1584412271571"><g><svg viewBox="0 0 213.1584412271571 190.8366597527159" height="190.8366597527159" width="213.1584412271571"><g><svg viewBox="0 0 213.1584412271571 190.8366597527159" height="190.8366597527159" width="213.1584412271571"><g transform="matrix(1,0,0,1,0,111.38250937187179)"><svg viewBox="0 0 213.1584412271571 79.4541503808441" height="79.4541503808441" width="213.1584412271571"><g id="textblocktransform"><svg viewBox="0 0 213.1584412271571 79.4541503808441" height="79.4541503808441" width="213.1584412271571" id="textblock"><g><svg viewBox="0 0 213.1584412271571 55.27123400663974" height="55.27123400663974" width="213.1584412271571"><g transform="matrix(1,0,0,1,0,0)"><svg width="213.1584412271571" viewBox="0.10000000149011612 -37.849998474121094 149.22999572753906 38.69999694824219" height="55.27123400663974" data-palette-color="#d9bca9"><path d="M6.75 0.35Q6 0.35 5.58-0.38 5.15-1.1 5.15-2.15L5.15-2.15Q5.15-3.8 5.35-6.2L5.35-6.2 5.45-7.5 5.55-10.15Q5.55-11.9 5.2-17.95L5.2-17.95Q4.85-24 4.85-25.75L4.85-25.75Q4.85-25.9 4.88-26.33 4.9-26.75 4.9-27.65L4.9-27.65Q4.95-28.65 4.95-30.1L4.95-30.1Q4.95-33.75 4.45-34.75L4.45-34.75Q4.15-34.75 3.15-34.6L3.15-34.6 1.75-34.5Q1.1-34.5 0.6-34.88 0.1-35.25 0.1-35.85L0.1-35.85Q0.1-36.45 1.3-36.9L1.3-36.9Q3.05-37.5 7.25-37.75L7.25-37.75Q8.95-37.85 9.3-37.85L9.3-37.85Q9.9-37.85 10.4-37.45 10.9-37.05 10.9-36.45L10.9-36.45Q10.9-35.85 10.48-35.48 10.05-35.1 9.4-35.1L9.4-35.1 8.5-35.15Q8.1-35.2 7.6-35.2L7.6-35.2 7.1-35.2Q7.45-31.8 7.45-29.05L7.45-29.05 7.4-25.85Q7.35-24.4 7.35-22.6L7.35-22.6Q7.35-20.2 7.55-16.85L7.55-16.85Q7.8-12.7 7.8-11.1L7.8-11.1Q7.8-9.2 8-6.6L8-6.6Q8.2-3.95 8.2-2.1L8.2-2.1Q8.2 0.35 6.75 0.35L6.75 0.35ZM24.9 0.85Q23.8 0.85 22.9-1.55L22.9-1.55Q21.85-4.15 21.35-6.9L21.35-6.9 21-8.6Q19.55-15.75 19.15-16.75L19.15-16.75 18.55-16.75Q18.55-15.3 18.5-14.1L18.5-14.1 18.5-11.35Q18.5-4.65 19.45-0.9L19.45-0.9 18.9 0.45 17.5 0.45 16.85-0.3 16.9-3.65Q16.9-8.15 16.45-17.3L16.45-17.3Q16.05-27.05 16.05-30.95L16.05-30.95Q16.05-33.35 17.7-33.35L17.7-33.35Q20.4-33.35 22.12-31.95 23.85-30.55 23.85-28.05L23.85-28.05 23.85-24.55Q23.85-23.8 23.6-22.83 23.35-21.85 23.05-21.25L23.05-21.25 22.1-19.45 21.3-17.95 21.55-16.75 22.25-13.2Q22.95-9.35 23.6-6.95 24.25-4.55 25.2-2.6L25.2-2.6 25.5-2Q26-1 26-0.4L26-0.4Q26 0.1 25.7 0.48 25.4 0.85 24.9 0.85L24.9 0.85ZM18.75-19.2Q19.85-19.75 20.62-22.23 21.4-24.7 21.4-26.8L21.4-26.8Q21.4-28.4 21-29.8L21-29.8Q20.75-30.6 20.17-31.03 19.6-31.45 18.75-31.45L18.75-31.45 18.65-31.2 18.55-30.75 18.65-24.85Q18.75-22.25 18.75-19.2L18.75-19.2ZM40.75 0.45Q39.59 0.45 39.05 0.1 38.5-0.25 38.5-1.2L38.5-1.2Q38.5-2.7 38-6.3L38-6.3 37.8-7.35 32.84-8.1Q32.55-6.95 32-3.45L32-3.45Q31.7-1 31.05-0.2L31.05-0.2Q30.7 0.25 30.05 0.25L30.05 0.25Q29.45 0.25 28.95-0.13 28.45-0.5 28.45-1.05L28.45-1.05 28.55-1.3 28.6-1.5Q31.9-14.35 33.59-26.85L33.59-26.85Q33.59-27.05 33.65-27.53 33.7-28 33.75-28.9L33.75-28.9Q33.9-30.75 34.07-31.85 34.25-32.95 34.65-33.5L34.65-33.5 36.34-33.5Q37.05-33.5 37.55-33.18 38.05-32.85 38.05-32.25L38.05-32.25Q38.05-28.45 39.09-20.95L39.09-20.95Q40.09-13.25 40.09-10.15L40.09-10.15Q40.09-9.85 40.34-8.6L40.34-8.6Q40.59-7.45 40.59-7.1L40.59-7.1Q40.59-6.75 41.09-4.1L41.09-4.1Q41.55-1.7 41.55-1L41.55-1 41.55-0.95Q41.55 0.15 40.75 0.45L40.75 0.45ZM37.45-9.15Q37.3-9.9 37.3-11L37.3-11Q37.3-15.5 36.5-22.5L36.5-22.5 36-27.7Q33.84-15.95 33.05-9.95L33.05-9.95Q33.8-9.45 37.45-9.15L37.45-9.15ZM50.64 0.6L49.69-0.15Q49.69-5.9 48.62-12.05 47.54-18.2 45.24-27.1L45.24-27.1Q45.14-27.6 44.79-28.65L44.79-28.65Q43.89-31.45 43.89-32.2L43.89-32.2Q43.89-32.65 44.27-33 44.64-33.35 45.09-33.35L45.09-33.35Q45.84-33.35 46.49-32.1L46.49-32.1Q47.14-30.9 47.69-28.88 48.24-26.85 48.89-23.85L48.89-23.85Q49.49-21 50.34-15.1L50.34-15.1 50.64-13.15 51.24-8.7Q51.44-6.85 51.59-6.05L51.59-6.05Q52.64-11.55 54.29-21.95L54.29-21.95Q55.64-30.85 56.19-34.1L56.19-34.1 57.29-34.1Q57.74-34.1 58.09-33.77 58.44-33.45 58.44-33L58.44-33Q58.44-31.2 58.02-29.13 57.59-27.05 56.74-24.15L56.74-24.15Q56.04-21.65 55.82-20.4 55.59-19.15 55.39-16.45L55.39-16.45Q54.99-10.4 54.14-5.6L54.14-5.6Q53.59-2.7 52.69-1.05 51.79 0.6 50.64 0.6L50.64 0.6ZM65.74 0.65Q65.09 0.65 64.57 0.2 64.04-0.25 63.99-0.9L63.99-0.9 63.99-2.2 63.99-3.2Q63.94-3.65 63.94-4.25L63.94-4.25Q63.94-5.3 63.79-7.45L63.79-7.45 63.69-10.65Q63.69-13.1 63.84-17.95L63.84-17.95Q64.04-22.3 64.04-25.25L64.04-25.25Q64.04-25.95 63.89-27.35L63.89-27.35Q63.74-28.8 63.74-29.45L63.74-29.45Q63.74-33 65.84-33L65.84-33Q67.49-33 69.67-32.35 71.84-31.7 71.84-30.8L71.84-30.8Q71.84-30.3 71.42-29.88 70.99-29.45 70.39-29.2L70.39-29.2Q68.29-29.95 66.59-30.2L66.59-30.2Q66.64-29.45 66.64-28.05L66.64-28.05Q66.64-26.05 66.59-24.45L66.59-24.45Q66.44-22.05 66.44-20.85L66.44-20.85 66.59-20.05 67.39-20.1Q67.79-20.15 68.39-20.15L68.39-20.15Q70.79-20.15 70.79-18.75L70.79-18.75Q70.79-18.2 70.34-17.82 69.89-17.45 69.19-17.45L69.19-17.45Q68.29-17.45 67.79-17.55L67.79-17.55 66.54-17.55Q66.64-16.25 66.64-13.75L66.64-13.75Q66.64-11.25 66.59-9.25L66.59-9.25Q66.44-6.2 66.44-4.7L66.44-4.7Q66.44-1.9 66.54-1.9L66.54-1.9 68.19-1.95Q69.04-2 70.24-2L70.24-2Q72.14-2 72.14-0.8L72.14-0.8Q72.14-0.1 71.52 0.28 70.89 0.65 69.99 0.65L69.99 0.65 65.74 0.65ZM85.34 0.8Q83.54 0.2 80.89 0.2L80.89 0.2Q80.09 0.7 79.19 0.7L79.19 0.7Q78.59 0.7 78.16 0.18 77.74-0.35 77.74-0.95L77.74-0.95Q77.74-5.15 78.09-12.15L78.09-12.15Q78.39-19.6 78.39-23.3L78.39-23.3 78.39-23.65Q78.09-26.8 78.09-28.35L78.09-28.35Q78.09-33.1 79.84-33.1L79.84-33.1Q80.34-33.1 80.71-32.73 81.09-32.35 81.09-31.85L81.09-31.85Q81.09-31.25 80.94-29.95L80.94-29.95Q80.79-28.7 80.79-28.05L80.79-28.05Q80.79-24.7 80.84-22L80.84-22Q80.89-19.35 80.89-16L80.89-16Q80.64-15.25 80.64-13.9L80.64-13.9 80.64-13.3 80.54-9.35Q80.44-7.6 80.44-5.35L80.44-5.35Q80.44-1.9 82.09-1.9L82.09-1.9Q82.19-1.9 82.41-1.93 82.64-1.95 83.04-1.95L83.04-1.95Q83.49-2 84.19-2L84.19-2Q86.89-2 86.89-0.5L86.89-0.5Q86.89 0 86.44 0.35 85.99 0.7 85.34 0.8L85.34 0.8ZM104.69 0.15Q104.09 0.15 103.79-0.18 103.49-0.5 103.34-1.3L103.34-1.3 103.04-2.25 103.04-2.35 103.04-2.5Q103.04-4.15 99.61-13.75 96.19-23.35 94.24-27.95L94.24-27.95 94.24-2.8 94.44-2.45Q94.49-2.35 94.64-2.1 94.79-1.85 94.79-1.6L94.79-1.6Q94.79-0.95 94.34-0.5 93.89-0.05 93.24-0.05L93.24-0.05Q91.64-0.05 91.64-3.1L91.64-3.1 91.59-11.65Q91.54-15.5 91.54-20.25L91.54-20.25Q91.54-21.85 91.69-24.9L91.69-24.9Q91.84-28.05 91.84-29.55L91.84-29.55Q91.84-31.9 93.64-33.25L93.64-33.25 93.64-32.95Q93.94-33.05 94.04-33.05L94.04-33.05Q95.19-33.05 96.94-29.05L96.94-29.05Q98.34-25.85 99.46-22.3 100.59-18.75 102.44-12.2L102.44-12.2 102.94-10.4Q104.09-6.35 104.69-4.6L104.69-4.6Q105.69-15.35 105.69-30L105.69-30 105.69-30.65Q105.64-30.95 105.64-31.3L105.64-31.3Q105.64-32.8 106.84-32.8L106.84-32.8Q107.54-32.8 107.91-32.25 108.29-31.7 108.29-30.85L108.29-30.85 108.29-27.1Q108.19-19.4 107.69-10.4 107.19-1.4 106.49-0.25L106.49-0.25Q105.04 0.15 104.69 0.15L104.69 0.15ZM117.28 0.65Q116.63 0.65 116.11 0.2 115.58-0.25 115.53-0.9L115.53-0.9 115.53-2.2 115.53-3.2Q115.48-3.65 115.48-4.25L115.48-4.25Q115.48-5.3 115.33-7.45L115.33-7.45 115.23-10.65Q115.23-13.1 115.38-17.95L115.38-17.95Q115.58-22.3 115.58-25.25L115.58-25.25Q115.58-25.95 115.43-27.35L115.43-27.35Q115.28-28.8 115.28-29.45L115.28-29.45Q115.28-33 117.38-33L117.38-33Q119.03-33 121.21-32.35 123.38-31.7 123.38-30.8L123.38-30.8Q123.38-30.3 122.96-29.88 122.53-29.45 121.93-29.2L121.93-29.2Q119.83-29.95 118.13-30.2L118.13-30.2Q118.18-29.45 118.18-28.05L118.18-28.05Q118.18-26.05 118.13-24.45L118.13-24.45Q117.98-22.05 117.98-20.85L117.98-20.85 118.13-20.05 118.93-20.1Q119.33-20.15 119.93-20.15L119.93-20.15Q122.33-20.15 122.33-18.75L122.33-18.75Q122.33-18.2 121.88-17.82 121.43-17.45 120.73-17.45L120.73-17.45Q119.83-17.45 119.33-17.55L119.33-17.55 118.08-17.55Q118.18-16.25 118.18-13.75L118.18-13.75Q118.18-11.25 118.13-9.25L118.13-9.25Q117.98-6.2 117.98-4.7L117.98-4.7Q117.98-1.9 118.08-1.9L118.08-1.9 119.73-1.95Q120.58-2 121.78-2L121.78-2Q123.68-2 123.68-0.8L123.68-0.8Q123.68-0.1 123.06 0.28 122.43 0.65 121.53 0.65L121.53 0.65 117.28 0.65ZM130.08 0.7Q129.18 0.55 128.56 0.05 127.93-0.45 127.83-1.25L127.83-1.25 128.38-2.1Q128.68-2.1 129.33-1.9L129.33-1.9Q130.08-1.75 130.48-1.75L130.48-1.75Q131.38-1.75 132.11-2.55 132.83-3.35 133.18-4.65L133.18-4.65Q133.83-7.05 133.83-8.95L133.83-8.95Q133.83-12.25 131.73-15.9L131.73-15.9 131.18-16.85Q130.23-18.5 129.58-19.8 128.93-21.1 128.48-22.6L128.48-22.6Q127.88-24.55 127.88-26.5L127.88-26.5Q127.88-28.7 128.88-31.1L128.88-31.1Q129.38-32.25 130.31-32.98 131.23-33.7 132.38-33.7L132.38-33.7Q133.28-33.7 134.06-33.13 134.83-32.55 134.83-31.75L134.83-31.75Q134.83-31.3 134.48-31.05 134.13-30.8 133.63-30.8L133.63-30.8Q133.08-30.8 132.58-31.1L132.58-31.1Q131.48-31.05 130.83-29.15L130.83-29.15Q130.28-27.4 130.28-26.25L130.28-26.25Q130.28-24.8 130.73-23.33 131.18-21.85 131.88-20.65L131.88-20.65 132.98-18.65 134.73-15.35Q135.43-13.95 135.86-12.1 136.28-10.25 136.28-8.35L136.28-8.35Q136.28-5.3 134.88-2.55L134.88-2.55Q134.18-1.15 132.91-0.3 131.63 0.55 130.08 0.55L130.08 0.55 130.08 0.7ZM145.23-0.15L144.33-0.8 144.28-2.75Q144.23-3.6 144.23-4.65L144.23-4.65 144.28-6.35Q144.13-6.9 143.53-17.3 142.93-27.7 142.83-30.65L142.83-30.65Q139.93-30.75 139.13-31.25L139.13-31.25Q138.58-31.65 138.58-32.15L138.58-32.15Q138.58-32.55 139.1-32.88 139.63-33.2 140.18-33.2L140.18-33.2Q141.58-33.2 143.58-33L143.58-33Q145.48-32.75 146.98-32.75L146.98-32.75 147.38-32.75 147.78-32.75Q149.33-32.75 149.33-31.55L149.33-31.55Q149.33-30.95 148.83-30.58 148.33-30.2 147.68-30.2L147.68-30.2Q147.23-30.2 146.38-30.35L146.38-30.35 145.38-30.55 145.33-30.3 145.28-30.05Q145.28-25.6 146.13-15.85L146.13-15.85Q146.93-6.7 146.93-1.65L146.93-1.65Q146.93-1.05 146.4-0.6 145.88-0.15 145.23-0.15L145.23-0.15Z" opacity="1" transform="matrix(1,0,0,1,0,0)" fill="#d9bca9" class="wordmark-text-0" data-fill-palette-color="quaternary" id="text-0"></path></svg></g></svg></g><g transform="matrix(1,0,0,1,0,68.31944584599123)"><svg viewBox="0 0 213.1584412271571 11.134704534852874" height="11.134704534852874" width="213.1584412271571"><g transform="matrix(1,0,0,1,0,0)"><svg width="213.1584412271571" viewBox="1.7999999523162842 -37.099998474121094 726.4299926757812 37.94999694824219" height="11.134704534852874" data-palette-color="#d9bca9"><path d="M3.4-30.65Q3-31.8 1.8-31.85L1.8-31.85 1.8-34.7Q3.25-34.7 4.5-33.85L4.5-33.85Q5.7-33.05 6.15-31.55L6.15-31.55 14.7-5 14.9-3.95 15.15-5 24.55-34.25 27.5-34.25 36.9-5 37.2-3.6 37.5-5 46.75-34.25 49.75-34.25 38.6 0 35.65 0 26-29.55 16.4 0 13.45 0 3.4-30.65ZM55.6-36.3L58.6-36.3 58.6-21.35Q60.15-23.5 62.2-24.5 64.25-25.5 66.95-25.5L66.95-25.5Q71-25.5 73.02-23.38 75.05-21.25 75.05-17.35L75.05-17.35 75.05 0 72.05 0 72.05-16.8Q72.05-19.55 70.7-21.13 69.35-22.7 66.65-22.7L66.65-22.7Q64.25-22.7 62.35-21.45 60.45-20.2 58.6-17.7L58.6-17.7 58.6 0 55.6 0 55.6-36.3ZM83.75-11.45Q83.8-7.95 85.44-5.05 87.09-2.15 92.05-2.15L92.05-2.15Q94.19-2.15 96.02-2.7 97.84-3.25 100-4.5L100-4.5 101.3-2.4Q99.3-1.05 96.84-0.25 94.39 0.55 91.84 0.55L91.84 0.55Q86.59 0.55 83.67-2.83 80.75-6.2 80.75-11.7L80.75-11.7Q80.75-15.25 82.05-18.38 83.34-21.5 85.89-23.45 88.44-25.4 91.89-25.4L91.89-25.4Q94.8-25.4 97.17-24.03 99.55-22.65 100.92-20.28 102.3-17.9 102.3-15L102.3-15Q102.3-14.2 102.25-13.58 102.19-12.95 102.14-12.5L102.14-12.5 102.05-11.45 83.75-11.45ZM83.89-14.15L99.25-14.15Q99.3-14.5 99.3-15.15L99.3-15.15Q99.3-17.25 98.3-18.98 97.3-20.7 95.59-21.7 93.89-22.7 91.84-22.7L91.84-22.7Q88.8-22.7 86.62-20.48 84.44-18.25 83.89-14.15L83.89-14.15ZM118.49-25.5Q119.99-25.5 121.49-25.05L121.49-25.05 121.49-22.25Q120.04-22.6 118.59-22.6L118.59-22.6Q116.04-22.6 114.44-21.35L114.44-21.35Q112.84-20.1 111.59-17.8L111.59-17.8 111.59 0 108.59 0 108.59-17.5Q108.59-21.45 106.49-23.3L106.49-23.3 108.49-25.3Q109.39-24.75 110.19-23.65 110.99-22.55 111.34-21.2L111.34-21.2Q112.74-23.5 114.14-24.35L114.14-24.35Q115.89-25.5 118.49-25.5L118.49-25.5ZM126.84-11.45Q126.89-7.95 128.54-5.05 130.19-2.15 135.14-2.15L135.14-2.15Q137.29-2.15 139.12-2.7 140.94-3.25 143.09-4.5L143.09-4.5 144.39-2.4Q142.39-1.05 139.94-0.25 137.49 0.55 134.94 0.55L134.94 0.55Q129.69 0.55 126.77-2.83 123.84-6.2 123.84-11.7L123.84-11.7Q123.84-15.25 125.14-18.38 126.44-21.5 128.99-23.45 131.54-25.4 134.99-25.4L134.99-25.4Q137.89-25.4 140.26-24.03 142.64-22.65 144.01-20.28 145.39-17.9 145.39-15L145.39-15Q145.39-14.2 145.34-13.58 145.29-12.95 145.24-12.5L145.24-12.5 145.14-11.45 126.84-11.45ZM126.99-14.15L142.34-14.15Q142.39-14.5 142.39-15.15L142.39-15.15Q142.39-17.25 141.39-18.98 140.39-20.7 138.69-21.7 136.99-22.7 134.94-22.7L134.94-22.7Q131.89-22.7 129.72-20.48 127.54-18.25 126.99-14.15L126.99-14.15ZM163.59 0L178.19-35.15 179.13-35.15 193.84 0 190.63 0 185.78-11.35 171.53-11.35 166.78 0 163.59 0ZM184.59-14.15L179.88-25.85Q179.09-27.85 178.63-29.75L178.63-29.75Q178.03-27.4 177.44-25.85L177.44-25.85 172.74-14.15 184.59-14.15ZM207.78 0.5Q204.43 0.5 202.03-1.23 199.63-2.95 198.38-5.88 197.13-8.8 197.13-12.3L197.13-12.3Q197.13-16.1 198.56-19.07 199.98-22.05 202.73-23.73 205.48-25.4 209.28-25.4L209.28-25.4Q210.43-25.4 212.21-25.28 213.98-25.15 215.33-24.95L215.33-24.95 215.33-36.35 218.08-36.35 218.08-7.2Q218.08-3.35 220.03-1.25L220.03-1.25 218.33 0.4Q216.38-1.05 215.68-3.9L215.68-3.9Q214.53-1.65 212.41-0.58 210.28 0.5 207.78 0.5L207.78 0.5ZM207.93-2.1Q210.18-2.1 211.96-3.2 213.73-4.3 214.63-6.2L214.63-6.2Q215.33-7.6 215.33-9.4L215.33-9.4 215.33-22.3Q212.58-22.65 211.36-22.73 210.13-22.8 208.83-22.8L208.83-22.8Q206.08-22.8 204.08-21.45 202.08-20.1 201.03-17.73 199.98-15.35 199.98-12.45L199.98-12.45Q199.98-8.1 202.08-5.1 204.18-2.1 207.93-2.1L207.93-2.1ZM224.98-20.75Q224.63-21.6 223.96-22.38 223.28-23.15 222.53-23.55L222.53-23.55 224.18-25.8Q226.73-24.25 228.13-20.4L228.13-20.4 234.43-3.85 242.23-24.95 245.23-24.95 235.93 0 232.83 0 224.98-20.75ZM251.38-11.45Q251.43-7.95 253.08-5.05 254.73-2.15 259.68-2.15L259.68-2.15Q261.83-2.15 263.65-2.7 265.48-3.25 267.63-4.5L267.63-4.5 268.93-2.4Q266.93-1.05 264.48-0.25 262.03 0.55 259.48 0.55L259.48 0.55Q254.23 0.55 251.3-2.83 248.38-6.2 248.38-11.7L248.38-11.7Q248.38-15.25 249.68-18.38 250.98-21.5 253.53-23.45 256.08-25.4 259.53-25.4L259.53-25.4Q262.43-25.4 264.8-24.03 267.18-22.65 268.55-20.28 269.93-17.9 269.93-15L269.93-15Q269.93-14.2 269.88-13.58 269.83-12.95 269.78-12.5L269.78-12.5 269.68-11.45 251.38-11.45ZM251.53-14.15L266.88-14.15Q266.93-14.5 266.93-15.15L266.93-15.15Q266.93-17.25 265.93-18.98 264.93-20.7 263.23-21.7 261.53-22.7 259.48-22.7L259.48-22.7Q256.43-22.7 254.25-20.48 252.08-18.25 251.53-14.15L251.53-14.15ZM276.23-17.65Q276.23-21.5 274.18-23.55L274.18-23.55 276.08-25.4Q278.28-23.85 278.88-20.9L278.88-20.9Q280.53-23.25 282.58-24.38 284.63-25.5 287.53-25.5L287.53-25.5Q291.43-25.5 293.6-23.4 295.78-21.3 295.73-17.35L295.73-17.35 295.58 0 292.68 0 292.73-16.8Q292.73-22.8 287.28-22.8L287.28-22.8Q284.73-22.8 282.95-21.58 281.18-20.35 279.23-17.7L279.23-17.7 279.23 0 276.23 0 276.23-17.65ZM309.97 0.7Q306.37 0.7 304.6-1.2 302.82-3.1 302.82-7.2L302.82-7.2 302.82-31.25 305.82-31.25 305.82-25 313.67-25 313.67-22.3 305.82-22.3 305.82-7.2Q305.82-4.05 307-3.03 308.17-2 309.92-2L309.92-2Q310.97-2 311.67-2.13 312.37-2.25 313.22-2.75L313.22-2.75 314.57-0.45Q312.72 0.7 309.97 0.7L309.97 0.7ZM327.82 0.4Q323.62 0.4 321.45-1.7 319.27-3.8 319.27-7.7L319.27-7.7 319.27-25 322.27-25 322.27-8.25Q322.27-5.45 323.57-3.88 324.87-2.3 327.97-2.3L327.97-2.3Q330.57-2.3 332.3-3.58 334.02-4.85 335.92-7.45L335.92-7.45 335.92-25 338.92-25 338.92-7.35Q338.92-3.45 340.87-1.45L340.87-1.45 339.02 0.35Q337.92-0.45 337.2-1.73 336.47-3 336.22-4.3L336.22-4.3Q334.62-1.8 332.55-0.7 330.47 0.4 327.82 0.4L327.82 0.4ZM356.87-25.5Q358.37-25.5 359.87-25.05L359.87-25.05 359.87-22.25Q358.42-22.6 356.97-22.6L356.97-22.6Q354.42-22.6 352.82-21.35L352.82-21.35Q351.22-20.1 349.97-17.8L349.97-17.8 349.97 0 346.97 0 346.97-17.5Q346.97-21.45 344.87-23.3L344.87-23.3 346.87-25.3Q347.77-24.75 348.57-23.65 349.37-22.55 349.72-21.2L349.72-21.2Q351.12-23.5 352.52-24.35L352.52-24.35Q354.27-25.5 356.87-25.5L356.87-25.5ZM365.22-11.45Q365.27-7.95 366.92-5.05 368.57-2.15 373.52-2.15L373.52-2.15Q375.67-2.15 377.49-2.7 379.32-3.25 381.47-4.5L381.47-4.5 382.77-2.4Q380.77-1.05 378.32-0.25 375.87 0.55 373.32 0.55L373.32 0.55Q368.07 0.55 365.14-2.83 362.22-6.2 362.22-11.7L362.22-11.7Q362.22-15.25 363.52-18.38 364.82-21.5 367.37-23.45 369.92-25.4 373.37-25.4L373.37-25.4Q376.27-25.4 378.64-24.03 381.02-22.65 382.39-20.28 383.77-17.9 383.77-15L383.77-15Q383.77-14.2 383.72-13.58 383.67-12.95 383.62-12.5L383.62-12.5 383.52-11.45 365.22-11.45ZM365.37-14.15L380.72-14.15Q380.77-14.5 380.77-15.15L380.77-15.15Q380.77-17.25 379.77-18.98 378.77-20.7 377.07-21.7 375.37-22.7 373.32-22.7L373.32-22.7Q370.27-22.7 368.09-20.48 365.92-18.25 365.37-14.15L365.37-14.15ZM405.31-34.65L406.21-34.65 420.71-16.15 435.51-34.65 436.41-34.65 436.41 0 433.41 0 433.41-23.5Q433.41-25 433.81-28.4L433.81-28.4Q431.16-24.7 427.26-19.8 423.36-14.9 420.76-12.15L420.76-12.15Q414.51-19.2 410.31-24.3L410.31-24.3Q409.56-25.25 409.01-26.05 408.46-26.85 407.91-27.85L407.91-27.85Q407.91-28 408.11-26.5L408.11-26.5Q408.31-25 408.31-24.2L408.31-24.2 408.31 0 405.31 0 405.31-34.65ZM446.56-11.45Q446.61-7.95 448.26-5.05 449.91-2.15 454.86-2.15L454.86-2.15Q457.01-2.15 458.83-2.7 460.66-3.25 462.81-4.5L462.81-4.5 464.11-2.4Q462.11-1.05 459.66-0.25 457.21 0.55 454.66 0.55L454.66 0.55Q449.41 0.55 446.48-2.83 443.56-6.2 443.56-11.7L443.56-11.7Q443.56-15.25 444.86-18.38 446.16-21.5 448.71-23.45 451.26-25.4 454.71-25.4L454.71-25.4Q457.61-25.4 459.98-24.03 462.36-22.65 463.73-20.28 465.11-17.9 465.11-15L465.11-15Q465.11-14.2 465.06-13.58 465.01-12.95 464.96-12.5L464.96-12.5 464.86-11.45 446.56-11.45ZM446.71-14.15L462.06-14.15Q462.11-14.5 462.11-15.15L462.11-15.15Q462.11-17.25 461.11-18.98 460.11-20.7 458.41-21.7 456.71-22.7 454.66-22.7L454.66-22.7Q451.61-22.7 449.43-20.48 447.26-18.25 446.71-14.15L446.71-14.15ZM472.81-11.45Q472.86-7.95 474.51-5.05 476.16-2.15 481.11-2.15L481.11-2.15Q483.26-2.15 485.08-2.7 486.91-3.25 489.06-4.5L489.06-4.5 490.36-2.4Q488.36-1.05 485.91-0.25 483.46 0.55 480.91 0.55L480.91 0.55Q475.66 0.55 472.73-2.83 469.81-6.2 469.81-11.7L469.81-11.7Q469.81-15.25 471.11-18.38 472.41-21.5 474.96-23.45 477.51-25.4 480.96-25.4L480.96-25.4Q483.86-25.4 486.23-24.03 488.61-22.65 489.98-20.28 491.36-17.9 491.36-15L491.36-15Q491.36-14.2 491.31-13.58 491.26-12.95 491.21-12.5L491.21-12.5 491.11-11.45 472.81-11.45ZM472.96-14.15L488.31-14.15Q488.36-14.5 488.36-15.15L488.36-15.15Q488.36-17.25 487.36-18.98 486.36-20.7 484.66-21.7 482.96-22.7 480.91-22.7L480.91-22.7Q477.86-22.7 475.68-20.48 473.51-18.25 472.96-14.15L472.96-14.15ZM504.15 0.7Q500.55 0.7 498.78-1.2 497-3.1 497-7.2L497-7.2 497-31.25 500-31.25 500-25 507.85-25 507.85-22.3 500-22.3 500-7.2Q500-4.05 501.18-3.03 502.35-2 504.1-2L504.1-2Q505.15-2 505.85-2.13 506.55-2.25 507.4-2.75L507.4-2.75 508.75-0.45Q506.9 0.7 504.15 0.7L504.15 0.7ZM520.9 0.6Q515.85 0.6 511.5-3.3L511.5-3.3 513.15-5.3Q515.05-3.75 516.93-2.93 518.8-2.1 520.95-2.1L520.95-2.1Q523.65-2.1 525.18-3.38 526.7-4.65 526.7-6.85L526.7-6.85Q526.7-8.25 526.03-9.13 525.35-10 524.23-10.55 523.1-11.1 520.2-12.3L520.2-12.3Q517.55-13.4 516.1-14.2 514.65-15 513.8-16.18 512.95-17.35 512.95-19.15L512.95-19.15Q512.95-22.1 515.05-23.88 517.15-25.65 520.65-25.65L520.65-25.65Q522.45-25.65 524.23-25.15 526-24.65 527.25-23.7L527.25-23.7 526-21.55Q523.7-22.95 520.8-22.95L520.8-22.95Q518.5-22.95 517.25-22.05 516-21.15 516-19.5L516-19.5Q516-18.25 516.68-17.45 517.35-16.65 518.43-16.13 519.5-15.6 522-14.6L522-14.6Q524.85-13.45 526.43-12.53 528-11.6 528.88-10.28 529.75-8.95 529.75-7L529.75-7Q529.75-3.55 527.33-1.48 524.9 0.6 520.9 0.6L520.9 0.6ZM565.39 0.85Q560.6 0.85 556.75-1.55 552.89-3.95 550.7-8 548.5-12.05 548.5-16.8L548.5-16.8Q548.5-21.65 550.79-25.9 553.1-30.15 557.04-32.7 561-35.25 565.6-35.25L565.6-35.25Q569.79-35.25 573.47-33.35 577.14-31.45 577.35-26.55L577.35-26.55 574.35-26.55Q574.2-29.85 571.32-31.05 568.45-32.25 565.35-32.25L565.35-32.25Q561.6-32.25 558.39-30.03 555.2-27.8 553.35-24.2 551.5-20.6 551.5-16.65L551.5-16.65Q551.5-12.85 553.29-9.53 555.1-6.2 558.27-4.2 561.45-2.2 565.45-2.2L565.45-2.2Q569.1-2.2 572.22-3.85 575.35-5.5 577.14-8.3L577.14-8.3 579.6-6.6Q577.25-3.05 573.45-1.1 569.64 0.85 565.39 0.85L565.39 0.85ZM595.34 0.5Q591.79 0.5 589.02-1.15 586.24-2.8 584.69-5.75 583.14-8.7 583.14-12.45L583.14-12.45Q583.14-16.2 584.72-19.18 586.29-22.15 589.07-23.83 591.84-25.5 595.39-25.5L595.39-25.5Q598.89-25.5 601.67-23.83 604.44-22.15 606.02-19.2 607.59-16.25 607.59-12.5L607.59-12.5Q607.59-8.75 606.02-5.8 604.44-2.85 601.67-1.18 598.89 0.5 595.34 0.5L595.34 0.5ZM595.39-2.2Q599.54-2.2 602.07-5.05 604.59-7.9 604.59-12.5L604.59-12.5Q604.59-15.55 603.44-17.88 602.29-20.2 600.19-21.5 598.09-22.8 595.39-22.8L595.39-22.8Q592.64-22.8 590.54-21.5 588.44-20.2 587.29-17.82 586.14-15.45 586.14-12.45L586.14-12.45Q586.14-9.45 587.29-7.13 588.44-4.8 590.54-3.5 592.64-2.2 595.39-2.2L595.39-2.2ZM613.64-17.65Q613.64-21.5 611.59-23.55L611.59-23.55 613.44-25.4Q615.59-23.8 616.19-21.15L616.19-21.15Q617.59-23.35 619.56-24.43 621.54-25.5 623.89-25.5L623.89-25.5Q626.34-25.5 628.16-24.35 629.99-23.2 630.89-21L630.89-21Q632.29-23.2 634.36-24.35 636.44-25.5 638.79-25.5L638.79-25.5Q642.19-25.5 644.36-23.3 646.54-21.1 646.49-17.35L646.49-17.35 646.29 0 643.39 0 643.49-16.8Q643.49-22.8 638.54-22.8L638.54-22.8Q634.14-22.8 631.54-17.8L631.54-17.8 631.54 0 628.54 0 628.54-16.8Q628.54-19.6 627.31-21.23 626.09-22.85 623.74-22.85L623.74-22.85Q621.44-22.85 619.46-21.4 617.49-19.95 616.64-17.9L616.64-17.9 616.64 0 613.64 0 613.64-17.65ZM665.74-36.55Q667.04-36.05 667.99-35L667.99-35 665.84-33.15Q664.74-34.5 662.54-34.5L662.54-34.5Q659.44-34.5 658.41-31.98 657.39-29.45 657.39-25.25L657.39-25.25 657.39-25 664.79-25 664.79-22.4 657.39-22.4 657.39 0 654.39 0 654.39-22.4 651.84-22.4 651.84-25 654.39-25 654.39-25.75Q654.39-31.1 656.16-34.1 657.94-37.1 662.44-37.1L662.44-37.1Q664.39-37.1 665.74-36.55L665.74-36.55ZM680.48 0.5Q676.93 0.5 674.16-1.15 671.38-2.8 669.83-5.75 668.28-8.7 668.28-12.45L668.28-12.45Q668.28-16.2 669.86-19.18 671.43-22.15 674.21-23.83 676.98-25.5 680.53-25.5L680.53-25.5Q684.03-25.5 686.81-23.83 689.58-22.15 691.16-19.2 692.73-16.25 692.73-12.5L692.73-12.5Q692.73-8.75 691.16-5.8 689.58-2.85 686.81-1.18 684.03 0.5 680.48 0.5L680.48 0.5ZM680.53-2.2Q684.68-2.2 687.21-5.05 689.73-7.9 689.73-12.5L689.73-12.5Q689.73-15.55 688.58-17.88 687.43-20.2 685.33-21.5 683.23-22.8 680.53-22.8L680.53-22.8Q677.78-22.8 675.68-21.5 673.58-20.2 672.43-17.82 671.28-15.45 671.28-12.45L671.28-12.45Q671.28-9.45 672.43-7.13 673.58-4.8 675.68-3.5 677.78-2.2 680.53-2.2L680.53-2.2ZM708.68-25.5Q710.18-25.5 711.68-25.05L711.68-25.05 711.68-22.25Q710.23-22.6 708.78-22.6L708.78-22.6Q706.23-22.6 704.63-21.35L704.63-21.35Q703.03-20.1 701.78-17.8L701.78-17.8 701.78 0 698.78 0 698.78-17.5Q698.78-21.45 696.68-23.3L696.68-23.3 698.68-25.3Q699.58-24.75 700.38-23.65 701.18-22.55 701.53-21.2L701.53-21.2Q702.93-23.5 704.33-24.35L704.33-24.35Q706.08-25.5 708.68-25.5L708.68-25.5ZM723.63 0.7Q720.03 0.7 718.25-1.2 716.48-3.1 716.48-7.2L716.48-7.2 716.48-31.25 719.48-31.25 719.48-25 727.33-25 727.33-22.3 719.48-22.3 719.48-7.2Q719.48-4.05 720.65-3.03 721.83-2 723.58-2L723.58-2Q724.63-2 725.33-2.13 726.03-2.25 726.88-2.75L726.88-2.75 728.23-0.45Q726.38 0.7 723.63 0.7L723.63 0.7Z" opacity="1" transform="matrix(1,0,0,1,0,0)" fill="#d9bca9" class="slogan-text-1" data-fill-palette-color="quaternary" id="text-1"></path></svg></g></svg></g></svg></g></svg></g><g transform="matrix(1,0,0,1,40.713262274387006,0)"><svg viewBox="0 0 131.7319166783831 98.33429753252031" height="98.33429753252031" width="131.7319166783831"><g><svg xmlns="http://www.w3.org/2000/svg" xmlns:xlink="http://www.w3.org/1999/xlink" version="1.1" x="0" y="0" viewBox="5.01949405670166 14.223360061645508 90.39397430419922 67.47664642333984" style="enable-background:new 0 0 100 100;" xml:space="preserve" height="98.33429753252031" width="131.7319166783831" class="icon-icon-0" data-fill-palette-color="quaternary" id="icon-0"><g fill="#d9bca9" data-fill-palette-color="quaternary"><path d="M64.3 66.5c13.3 0 24-10.8 24-24 0-13.3-10.8-24-24-24-13.3 0-24 10.8-24 24 0 1.7 0.2 3.5 0.6 5.1L32 49.7c-0.4 0.1-0.7 0.5-0.8 0.9 0 0.4 0.2 0.9 0.6 1l9 4v6.6c0 0.4 0.2 0.8 0.6 0.9 0.1 0.1 0.3 0.1 0.4 0.1 0.2 0 0.5-0.1 0.6-0.2l3.5-2.8 2.9 2.7c0.2 0.2 0.4 0.3 0.7 0.3 0 0 0 0 0.1 0 0.3 0 0.5-0.1 0.7-0.4l0.5-0.6C54.8 65.1 59.4 66.5 64.3 66.5zM42.3 42.5c0-12.1 9.9-22 22-22s22 9.9 22 22-9.9 22-22 22c-4.4 0-8.6-1.3-12.2-3.7l14.7-17.4c0-0.1 0.1-0.1 0.1-0.2l0.1-0.1c0-0.1 0.1-0.2 0.1-0.3l0 0c0-0.1 0-0.2-0.1-0.4l0 0c0 0 0-0.1-0.1-0.1 0-0.1-0.1-0.1-0.1-0.2l0 0L66.7 42l-0.1-0.1c-0.1 0-0.1 0-0.2-0.1-0.1 0-0.1 0-0.2-0.1-0.1 0-0.1 0-0.2 0s-0.1 0-0.2 0c0 0 0 0-0.1 0l-22.9 5.5C42.5 45.6 42.3 44.1 42.3 42.5zM57.8 45.7l-16.1 8.2L35.4 51 57.8 45.7zM42.8 60.1v-2.8l1.6 1.5L42.8 60.1zM49.4 60.8l-2.7-2.6 0 0-3-2.8-0.1-0.1L62 45.9 49.4 60.8z" fill="#d9bca9" data-fill-palette-color="quaternary"></path><path d="M77.4 14.3c-0.5-0.2-1.1 0-1.4 0.5-0.2 0.5 0 1.1 0.5 1.4 14.5 6.7 20.8 24 14.1 38.5-6.7 14.5-24 20.8-38.5 14.1-0.5-0.2-1.1 0-1.4 0.5-0.2 0.5 0 1.1 0.5 1.4 3.9 1.8 8 2.7 12.1 2.9v6.1h-7.6c-0.6 0-1 0.5-1 1 0 0.6 0.5 1 1 1H72c0.6 0 1-0.5 1-1 0-0.6-0.5-1-1-1h-6.6v-6.1c11.3-0.4 22.1-7 27.2-17.9C99.7 40 92.9 21.5 77.4 14.3z" fill="#d9bca9" data-fill-palette-color="quaternary"></path><path d="M35.7 58.2l-0.9 0.5c-0.3 0.2-0.4 0.6-0.2 0.9 0.1 0.2 0.4 0.3 0.6 0.3 0.1 0 0.2 0 0.3-0.1l0.9-0.5c0.3-0.2 0.4-0.6 0.2-0.9C36.4 58.1 36 58 35.7 58.2z" fill="#d9bca9" data-fill-palette-color="quaternary"></path><path d="M17.9 51.8c-0.1-0.4-0.4-0.6-0.8-0.5-0.7 0.2-1.5 0.4-2.1 0.8-0.3 0.2-0.4 0.6-0.2 0.9 0.1 0.2 0.4 0.3 0.6 0.3 0.1 0 0.2 0 0.3-0.1 0.5-0.3 1.1-0.5 1.7-0.6C17.7 52.6 17.9 52.2 17.9 51.8z" fill="#d9bca9" data-fill-palette-color="quaternary"></path><path d="M14.7 62.5c-0.4-0.4-0.8-0.8-1.1-1.3-0.2-0.3-0.6-0.4-0.9-0.2-0.3 0.2-0.4 0.6-0.2 0.9 0.4 0.6 0.8 1.1 1.4 1.6l0.1 0.1c0.1 0.1 0.3 0.1 0.4 0.1 0.2 0 0.4-0.1 0.5-0.3 0.2-0.3 0.2-0.7-0.1-1L14.7 62.5z" fill="#d9bca9" data-fill-palette-color="quaternary"></path><path d="M12.1 58.4L12.1 58.4c0.4 0 0.7-0.3 0.7-0.6 0-0.2 0-0.4 0.1-0.6 0.1-0.4 0.2-0.8 0.3-1.1s0-0.7-0.4-0.9c-0.3-0.1-0.7 0-0.9 0.4-0.2 0.5-0.3 0.9-0.4 1.4 0 0.3-0.1 0.5-0.1 0.8C11.4 58 11.7 58.4 12.1 58.4z" fill="#d9bca9" data-fill-palette-color="quaternary"></path><path d="M12.7 67.6c-0.1 0-0.2 0-0.4 0-0.5 0-1.1 0-1.6-0.1-0.4 0-0.7 0.2-0.7 0.6s0.2 0.7 0.6 0.7c0.6 0.1 1.2 0.1 1.7 0.1 0.1 0 0.3 0 0.4 0 0.4 0 0.7-0.3 0.7-0.7C13.3 67.9 13 67.6 12.7 67.6z" fill="#d9bca9" data-fill-palette-color="quaternary"></path><path d="M18.3 66.3c-0.6 0.3-1.2 0.5-1.8 0.7-0.4 0.1-0.6 0.5-0.5 0.8s0.4 0.5 0.7 0.5c0.1 0 0.1 0 0.2 0 0.7-0.2 1.4-0.5 2-0.8 0.3-0.2 0.5-0.6 0.3-0.9C19.1 66.3 18.7 66.1 18.3 66.3z" fill="#d9bca9" data-fill-palette-color="quaternary"></path><path d="M24.6 59.9h0.1c0.3 0 0.6-0.2 0.7-0.6 0.1-0.4 0.1-0.8 0.1-1.1 0-0.4 0-0.8-0.1-1.1-0.1-0.4-0.4-0.6-0.8-0.6-0.4 0.1-0.6 0.4-0.6 0.8 0 0.3 0.1 0.6 0.1 0.9 0 0.3 0 0.6-0.1 0.9C24 59.5 24.3 59.9 24.6 59.9z" fill="#d9bca9" data-fill-palette-color="quaternary"></path><path d="M25.8 63.5c-0.7 0.3-1.3 0.5-1.9 0.6-0.4 0.1-0.6 0.5-0.5 0.8s0.4 0.5 0.7 0.5c0.1 0 0.1 0 0.2 0 0.6-0.2 1.3-0.4 2-0.7 0.4-0.1 0.5-0.5 0.4-0.9C26.6 63.5 26.2 63.3 25.8 63.5z" fill="#d9bca9" data-fill-palette-color="quaternary"></path><path d="M31.3 60.8c-0.6 0.3-1.2 0.7-1.8 1-0.3 0.2-0.5 0.6-0.3 0.9 0.1 0.2 0.4 0.4 0.6 0.4 0.1 0 0.2 0 0.3-0.1 0.6-0.3 1.2-0.7 1.8-1 0.3-0.2 0.4-0.6 0.3-0.9C32 60.7 31.6 60.6 31.3 60.8z" fill="#d9bca9" data-fill-palette-color="quaternary"></path><path d="M20.1 64.6c-0.7 0-1.3-0.1-1.9-0.3-0.4-0.1-0.7 0.1-0.8 0.5-0.1 0.4 0.1 0.7 0.5 0.8 0.7 0.2 1.4 0.3 2.2 0.3l0 0c0.4 0 0.7-0.3 0.7-0.7C20.8 64.9 20.5 64.6 20.1 64.6z" fill="#d9bca9" data-fill-palette-color="quaternary"></path><path d="M22.9 54.3c0.2 0 0.4-0.1 0.5-0.2 0.3-0.3 0.3-0.7 0-1-0.5-0.5-1.2-1-1.9-1.3-0.3-0.2-0.7 0-0.9 0.3-0.2 0.3 0 0.7 0.3 0.9 0.6 0.3 1.1 0.6 1.5 1C22.5 54.2 22.7 54.3 22.9 54.3z" fill="#d9bca9" data-fill-palette-color="quaternary"></path><path d="M23.7 62.5c-0.3-0.2-0.7-0.1-0.9 0.2-0.3 0.5-0.8 1-1.2 1.5-0.3 0.3-0.3 0.7 0 1 0.1 0.1 0.3 0.2 0.5 0.2s0.3-0.1 0.5-0.2c0.5-0.5 1-1.1 1.4-1.7C24.1 63.1 24 62.7 23.7 62.5z" fill="#d9bca9" data-fill-palette-color="quaternary"></path><path d="M6.9 66.6c-0.3-0.1-0.6-0.3-0.9-0.4-0.3-0.2-0.7 0-0.9 0.3-0.2 0.3 0 0.7 0.3 0.9 0.3 0.2 0.6 0.3 1 0.4 0.1 0 0.2 0 0.3 0 0.3 0 0.5-0.2 0.6-0.4C7.4 67.1 7.2 66.7 6.9 66.6z" fill="#d9bca9" data-fill-palette-color="quaternary"></path></g></svg></g></svg></g><g></g></svg></g></svg></g></svg></g></svg></g><defs></defs></svg><rect width="342.85155851775386" height="342.85155851775386" fill="none" stroke="none" visibility="hidden"></rect></g></svg></g></svg>